<?xml version="1.0" encoding="utf-8"?>
<!-- Generator: Adobe Illustrator 24.2.3, SVG Export Plug-In . SVG Version: 6.00 Build 0)  -->
<svg version="1.1" id="Layer_1" xmlns="http://www.w3.org/2000/svg" xmlns:xlink="http://www.w3.org/1999/xlink" x="0px" y="0px"
	 viewBox="0 0 150 150" style="enable-background:new 0 0 150 150;" xml:space="preserve">
<style type="text/css">
	.st0{display:none;}
	.st1{display:inline;}
	.st2{fill:none;stroke:#FFFFFF;stroke-width:8;stroke-linecap:round;stroke-miterlimit:10;}
</style>
<g class="st0">
	<path class="st1" d="M75,6.5c1.2,0,2.2,0.6,2.7,1.7l18.5,37.5c1.3,2.7,3.8,4.5,6.8,4.9l41.3,6c1.2,0.2,2.1,0.9,2.4,2
		c0.4,1.1,0.1,2.3-0.8,3.1L116,90.8c-2.1,2.1-3.1,5-2.6,8l7.1,41.2c0.2,1.1-0.2,1.9-0.6,2.4c-0.6,0.7-1.4,1.1-2.3,1.1
		c-0.5,0-0.9-0.1-1.4-0.4l-37-19.4c-1.3-0.7-2.7-1-4.2-1s-2.9,0.4-4.2,1l-37,19.4c-0.5,0.2-0.9,0.4-1.4,0.4c-0.9,0-1.7-0.4-2.3-1.1
		c-0.4-0.5-0.8-1.3-0.6-2.4l7.1-41.2c0.5-2.9-0.5-5.9-2.6-8L4,61.7c-0.8-0.8-1.1-2-0.8-3.1c0.4-1.1,1.3-1.9,2.4-2l41.3-6
		c2.9-0.4,5.5-2.3,6.8-4.9L72.3,8.2C72.8,7.1,73.8,6.5,75,6.5 M75,3.5c-2.1,0-4.3,1.1-5.4,3.3L51.1,44.3c-0.9,1.8-2.6,3-4.5,3.3
		l-41.3,6C0.4,54.3-1.6,60.4,2,63.8L31.9,93c1.4,1.4,2.1,3.4,1.7,5.3l-7.1,41.2c-0.7,3.9,2.4,7,5.9,7c0.9,0,1.9-0.2,2.8-0.7l37-19.4
		c0.9-0.5,1.8-0.7,2.8-0.7s1.9,0.2,2.8,0.7l37,19.4c0.9,0.5,1.9,0.7,2.8,0.7c3.5,0,6.6-3.1,5.9-7l-7.1-41.2
		c-0.3-1.9,0.3-3.9,1.7-5.3L148,63.8c3.6-3.5,1.6-9.5-3.3-10.2l-41.3-6c-2-0.3-3.6-1.5-4.5-3.3L80.4,6.8C79.3,4.6,77.1,3.5,75,3.5
		L75,3.5z"/>
</g>
<line class="st2" x1="8" y1="66" x2="8" y2="139"/>
<line class="st2" x1="34.8" y1="86" x2="34.8" y2="139"/>
<line class="st2" x1="61.6" y1="26" x2="61.6" y2="139"/>
<line class="st2" x1="88.4" y1="106" x2="88.4" y2="139"/>
<line class="st2" x1="115.2" y1="66" x2="115.2" y2="139"/>
<line class="st2" x1="142" y1="46" x2="142" y2="139"/>
</svg>
