<?xml version="1.0" encoding="utf-8"?>
<!-- Generator: Adobe Illustrator 24.2.3, SVG Export Plug-In . SVG Version: 6.00 Build 0)  -->
<svg version="1.1" id="Layer_1" xmlns="http://www.w3.org/2000/svg" xmlns:xlink="http://www.w3.org/1999/xlink" x="0px" y="0px"
	 viewBox="0 0 150 150" style="enable-background:new 0 0 150 150;" xml:space="preserve">
<style type="text/css">
	.st0{fill:#4C2508;stroke:#FFFFFF;stroke-width:4;stroke-miterlimit:10;}
</style>
<g>
	<path class="st0" d="M75,10.9c1.1,0,2.1,0.6,2.5,1.6l17.3,35.1c1.2,2.5,3.6,4.2,6.4,4.6l38.6,5.6c1.1,0.2,2,0.8,2.2,1.9
		c0.4,1,0.1,2.2-0.7,2.9l-28,27.2c-2,2-2.9,4.7-2.4,7.5l6.6,38.5c0.2,1-0.2,1.8-0.6,2.2c-0.6,0.7-1.3,1-2.2,1
		c-0.5,0-0.8-0.1-1.3-0.4l-34.6-18.1c-1.2-0.7-2.5-0.9-3.9-0.9s-2.7,0.4-3.9,0.9l-34.6,18.1c-0.5,0.2-0.8,0.4-1.3,0.4
		c-0.8,0-1.6-0.4-2.2-1c-0.4-0.5-0.7-1.2-0.6-2.2l6.6-38.5c0.5-2.7-0.5-5.5-2.4-7.5L8.6,62.6c-0.7-0.7-1-1.9-0.7-2.9
		c0.4-1,1.2-1.8,2.2-1.9l38.6-5.6c2.7-0.4,5.1-2.2,6.4-4.6l17.4-35.1C72.9,11.5,73.9,10.9,75,10.9 M75,8.1c-2,0-4,1-5.1,3.1
		L52.6,46.3c-0.8,1.7-2.4,2.8-4.2,3.1L9.8,55c-4.6,0.7-6.5,6.4-3.1,9.5l28,27.3c1.3,1.3,2,3.2,1.6,5l-6.6,38.5
		c-0.7,3.6,2.2,6.5,5.5,6.5c0.8,0,1.8-0.2,2.6-0.7l34.6-18.1c0.8-0.5,1.7-0.7,2.6-0.7s1.8,0.2,2.6,0.7l34.6,18.1
		c0.8,0.5,1.8,0.7,2.6,0.7c3.3,0,6.2-2.9,5.5-6.5l-6.6-38.5c-0.3-1.8,0.3-3.6,1.6-5l28-27.3c3.4-3.3,1.5-8.9-3.1-9.5l-38.6-5.6
		c-1.9-0.3-3.4-1.4-4.2-3.1L80.1,11.2C79,9.2,77,8.1,75,8.1L75,8.1z"/>
</g>
</svg>
