<?xml version="1.0" encoding="utf-8"?>
<!-- Generator: Adobe Illustrator 24.2.3, SVG Export Plug-In . SVG Version: 6.00 Build 0)  -->
<svg version="1.1" id="Layer_1" xmlns="http://www.w3.org/2000/svg" xmlns:xlink="http://www.w3.org/1999/xlink" x="0px" y="0px"
	 viewBox="0 0 150 150" style="enable-background:new 0 0 150 150;" xml:space="preserve">
<style type="text/css">
	.st0{display:none;}
	.st1{display:inline;}
	.st2{display:inline;fill:none;stroke:#000000;stroke-width:8;stroke-linecap:round;stroke-miterlimit:10;}
	.st3{fill:none;stroke:#FFFFFF;stroke-width:7;stroke-linecap:round;stroke-miterlimit:10;}
</style>
<g class="st0">
	<path class="st1" d="M75.2,12c1.2,0,2.2,0.6,2.7,1.7l18.5,37.5c1.3,2.7,3.8,4.5,6.8,4.9l41.3,6c1.2,0.2,2.1,0.9,2.4,2
		c0.4,1.1,0.1,2.3-0.8,3.1l-29.9,29.2c-2.1,2.1-3.1,5-2.6,8l7.1,41.2c0.2,1.1-0.2,1.9-0.6,2.4c-0.6,0.7-1.4,1.1-2.3,1.1
		c-0.5,0-0.9-0.1-1.4-0.4l-37-19.4c-1.3-0.7-2.7-1-4.2-1s-2.9,0.4-4.2,1l-37,19.4c-0.5,0.2-0.9,0.4-1.4,0.4c-0.9,0-1.7-0.4-2.3-1.1
		c-0.4-0.5-0.8-1.3-0.6-2.4l7.1-41.2c0.5-2.9-0.5-5.9-2.6-8l-30-29.2c-0.8-0.8-1.1-2-0.8-3.1c0.4-1.1,1.3-1.9,2.4-2l41.3-6
		c2.9-0.4,5.5-2.3,6.8-4.9l18.5-37.5C73,12.7,74,12,75.2,12 M75.2,9c-2.1,0-4.3,1.1-5.4,3.3L51.3,49.9c-0.9,1.8-2.6,3-4.5,3.3
		l-41.3,6C0.6,59.9-1.4,66,2.2,69.4L32,98.5c1.4,1.4,2.1,3.4,1.7,5.3l-7,41.2c-0.7,3.9,2.4,7,5.9,7c0.9,0,1.9-0.2,2.8-0.7l37-19.4
		c0.9-0.5,1.8-0.7,2.8-0.7s1.9,0.2,2.8,0.7l37,19.4c0.9,0.5,1.9,0.7,2.8,0.7c3.5,0,6.6-3.1,5.9-7l-7.1-41.2
		c-0.3-1.9,0.3-3.9,1.7-5.3l29.9-29.2c3.6-3.5,1.6-9.5-3.3-10.2l-41.3-6c-2-0.3-3.6-1.5-4.5-3.3L80.6,12.4C79.5,10.2,77.3,9,75.2,9
		L75.2,9z"/>
</g>
<g class="st0">
	<line class="st2" x1="8.2" y1="64" x2="8.2" y2="137"/>
	<line class="st2" x1="35" y1="84" x2="35" y2="137"/>
	<line class="st2" x1="61.8" y1="24" x2="61.8" y2="137"/>
	<line class="st2" x1="88.6" y1="104" x2="88.6" y2="137"/>
	<line class="st2" x1="115.4" y1="64" x2="115.4" y2="137"/>
	<line class="st2" x1="142.2" y1="44" x2="142.2" y2="137"/>
</g>
<g>
	<path class="st3" d="M8.8,23.9h5.3c3.2,0,5.9,2.1,6.6,5.3l14.8,65h78.4c6,0,11.3-3.7,13.4-9.4l13.8-38c1.9-5.1-2-10.6-7.4-10.6H54"
		/>
	<polyline class="st3" points="35.4,94.3 35.4,111.3 123.4,111.3 	"/>
	<circle class="st3" cx="37.6" cy="124" r="13.1"/>
	<circle class="st3" cx="120.6" cy="124" r="13.1"/>
</g>
</svg>
