<?xml version="1.0" encoding="utf-8"?>
<!-- Generator: Adobe Illustrator 24.2.3, SVG Export Plug-In . SVG Version: 6.00 Build 0)  -->
<svg version="1.1" id="Layer_2_1_" xmlns="http://www.w3.org/2000/svg" xmlns:xlink="http://www.w3.org/1999/xlink" x="0px" y="0px"
	 viewBox="0 0 150 150" style="enable-background:new 0 0 150 150;" xml:space="preserve">
<style type="text/css">
	.st0{fill:#FFFFFF;}
</style>
<path class="st0" d="M143.2,12.1c4.6,0,8.1,4.1,6.3,11.6l-22.6,106.6c-1.6,7.6-6.2,9.4-12.5,5.9l-54-39.9c-0.7-0.5-0.9-1.5-0.4-2.3
	c0.1-0.1,0.2-0.3,0.4-0.4l62.3-56.3c2.8-2.5-0.6-3.7-4.3-1.5L40.2,85.3c-0.5,0.3-1.1,0.4-1.6,0.2L5.3,75C-2,72.9-2,67.8,7,64.2
	l132.9-51.3C140.9,12.4,142.1,12.1,143.2,12.1z"/>
</svg>
