<?xml version="1.0" encoding="utf-8"?>
<!-- Generator: Adobe Illustrator 24.2.3, SVG Export Plug-In . SVG Version: 6.00 Build 0)  -->
<svg version="1.1" id="Layer_1" xmlns="http://www.w3.org/2000/svg" xmlns:xlink="http://www.w3.org/1999/xlink" x="0px" y="0px"
	 viewBox="0 0 150 150" style="enable-background:new 0 0 150 150;" xml:space="preserve">
<style type="text/css">
	.st0{fill-rule:evenodd;clip-rule:evenodd;fill:#FFFFFF;}
</style>
<path class="st0" d="M146.5,37.2c1-3.4,0-5.9-5-5.9h-16.4c-4.2,0-6.1,2.2-7.1,4.6c0,0-8.3,20-20.2,33c-3.8,3.7-5.6,4.9-7.6,4.9
	c-1,0-2.6-1.2-2.6-4.6V37.2c0-4.1-1.2-5.9-4.6-5.9H57.2c-2.6,0-4.2,1.9-4.2,3.7c0,3.9,5.9,4.8,6.5,15.7v23.7c0,5.2-1,6.1-3,6.1
	c-5.6,0-19.1-20.1-27.1-43c-1.6-4.5-3.1-6.3-7.3-6.3H5.6c-4.7,0-5.6,2.2-5.6,4.6c0,4.2,5.6,25.4,25.9,53.4
	c13.6,19.1,32.7,29.5,50,29.5c10.4,0,11.7-2.3,11.7-6.3V98c0-4.6,1-5.5,4.3-5.5c2.4,0,6.6,1.2,16.3,10.4
	c11.1,10.9,13,15.8,19.2,15.8h16.4c4.7,0,7-2.3,5.7-6.8c-1.5-4.5-6.8-11.1-13.8-18.9c-3.8-4.4-9.6-9.2-11.3-11.6
	c-2.4-3.1-1.7-4.4,0-7.2C124.5,74.2,144.5,46.6,146.5,37.2z"/>
</svg>
