<?xml version="1.0" encoding="utf-8"?>
<!-- Generator: Adobe Illustrator 24.2.3, SVG Export Plug-In . SVG Version: 6.00 Build 0)  -->
<svg version="1.1" id="Layer_1" xmlns="http://www.w3.org/2000/svg" xmlns:xlink="http://www.w3.org/1999/xlink" x="0px" y="0px"
	 viewBox="0 0 150 150" style="enable-background:new 0 0 150 150;" xml:space="preserve">
<style type="text/css">
	.st0{fill:#FFFFFF;}
</style>
<path class="st0" d="M117.5,22.5h-85C15.2,21.9,0.7,35.4,0,52.6v44.7c0.7,17.3,15.2,30.8,32.5,30.1h85c17.3,0.6,31.8-12.8,32.5-30.1
	V52.6C149.3,35.4,134.8,21.9,117.5,22.5z M95,78.6L71.3,96.2c-4.5,3-11.3,0.4-11.3-4.3V58.1c0-4.8,6.8-7.4,11.3-4.3L95,69.9
	c1.5,0.9,2.5,2.5,2.5,4.3C97.5,76,96.6,77.7,95,78.6z"/>
</svg>
